<svg id="Capa_2" data-name="Capa 2" xmlns="http://www.w3.org/2000/svg" viewBox="0 0 531.35 1057.91"><defs><style>.cls-1{fill:#fffdfa;}.cls-2{fill:#f7faf9;}.cls-3{fill:#eff6f8;}.cls-4{fill:#e8f3f7;}.cls-5{fill:#e0eff5;}.cls-6{fill:#d8ecf4;}.cls-7{fill:#d0e8f3;}.cls-8{fill:#c8e5f2;}.cls-9{fill:#c1e1f1;}.cls-10{fill:#b9def0;}.cls-11{fill:#b1daee;}.cls-12{fill:#a9d7ed;}.cls-13{fill:#a1d3ec;}.cls-14{fill:#9ad0eb;}.cls-15{fill:#92cdea;}.cls-16{fill:#8ac9e9;}.cls-17{fill:#82c6e8;}.cls-18{fill:#7ac2e6;}.cls-19{fill:#72bfe5;}.cls-20{fill:#6bbbe4;}.cls-21{fill:#63b8e3;}.cls-22{fill:#5bb4e2;}.cls-23{fill:#53b1e1;}.cls-24{fill:#4baddf;}.cls-25{fill:#44aade;}.cls-26{fill:#3ca6dd;}.cls-27{fill:#34a3dc;}</style></defs><path class="cls-1" d="M500,1018.6a2277.54,2277.54,0,0,0-500,0q-7.85-71-15.68-142a2421.74,2421.74,0,0,1,531.36,0Q507.84,947.61,500,1018.6Z" transform="translate(15.68 39.31)"/><path class="cls-2" d="M-15.68,841.94a2421.74,2421.74,0,0,1,531.36,0q-7.84,71-15.68,142a2278.78,2278.78,0,0,0-500,0Q-7.85,912.94-15.68,841.94Z" transform="translate(15.68 39.31)"/><path class="cls-3" d="M-15.68,807.27a2421.74,2421.74,0,0,1,531.36,0q-7.84,71-15.68,142a2277.54,2277.54,0,0,0-500,0Q-7.85,878.28-15.68,807.27Z" transform="translate(15.68 39.31)"/><path class="cls-4" d="M-15.68,772.61a2420.5,2420.5,0,0,1,531.36,0q-7.84,71-15.68,142a2278.78,2278.78,0,0,0-500,0Q-7.85,843.61-15.68,772.61Z" transform="translate(15.68 39.31)"/><path class="cls-5" d="M-15.68,737.94a2421.74,2421.74,0,0,1,531.36,0q-7.84,71-15.68,142a2277.54,2277.54,0,0,0-500,0Q-7.85,808.95-15.68,737.94Z" transform="translate(15.68 39.31)"/><path class="cls-6" d="M-15.68,703.28a2420.5,2420.5,0,0,1,531.36,0q-7.84,71-15.68,142a2278.78,2278.78,0,0,0-500,0Q-7.85,774.28-15.68,703.28Z" transform="translate(15.68 39.31)"/><path class="cls-7" d="M-15.68,668.61a2421.74,2421.74,0,0,1,531.36,0q-7.84,71-15.68,142a2277.54,2277.54,0,0,0-500,0Q-7.85,739.62-15.68,668.61Z" transform="translate(15.68 39.31)"/><path class="cls-8" d="M-15.68,634a2421.74,2421.74,0,0,1,531.36,0q-7.84,71-15.68,142a2278.78,2278.78,0,0,0-500,0Q-7.85,704.95-15.68,634Z" transform="translate(15.68 39.31)"/><path class="cls-9" d="M-15.68,599.28a2421.74,2421.74,0,0,1,531.36,0q-7.84,71-15.68,142a2277.54,2277.54,0,0,0-500,0Q-7.85,670.29-15.68,599.28Z" transform="translate(15.68 39.31)"/><path class="cls-10" d="M-15.68,564.62a2421.74,2421.74,0,0,1,531.36,0q-7.84,71-15.68,142a2278.78,2278.78,0,0,0-500,0Q-7.85,635.62-15.68,564.62Z" transform="translate(15.68 39.31)"/><path class="cls-11" d="M-15.68,530a2421.74,2421.74,0,0,1,531.36,0Q507.84,601,500,672A2277.54,2277.54,0,0,0,0,672Q-7.85,601-15.68,530Z" transform="translate(15.68 39.31)"/><path class="cls-12" d="M-15.68,495.29a2420.5,2420.5,0,0,1,531.36,0q-7.84,71-15.68,142a2278.78,2278.78,0,0,0-500,0Q-7.85,566.29-15.68,495.29Z" transform="translate(15.68 39.31)"/><path class="cls-13" d="M-15.68,460.62a2421.74,2421.74,0,0,1,531.36,0q-7.84,71-15.68,142a2277.54,2277.54,0,0,0-500,0Q-7.85,531.63-15.68,460.62Z" transform="translate(15.68 39.31)"/><path class="cls-14" d="M-15.68,426a2420.5,2420.5,0,0,1,531.36,0Q507.84,497,500,568A2278.78,2278.78,0,0,0,0,568Q-7.85,497-15.68,426Z" transform="translate(15.68 39.31)"/><path class="cls-15" d="M-15.68,391.29a2421.74,2421.74,0,0,1,531.36,0q-7.84,71-15.68,142a2277.54,2277.54,0,0,0-500,0Q-7.85,462.29-15.68,391.29Z" transform="translate(15.68 39.31)"/><path class="cls-16" d="M-15.68,356.63a2420.5,2420.5,0,0,1,531.36,0q-7.84,71-15.68,142a2278.78,2278.78,0,0,0-500,0Q-7.85,427.63-15.68,356.63Z" transform="translate(15.68 39.31)"/><path class="cls-17" d="M-15.68,322a2421.74,2421.74,0,0,1,531.36,0Q507.84,393,500,464A2277.54,2277.54,0,0,0,0,464Q-7.85,393-15.68,322Z" transform="translate(15.68 39.31)"/><path class="cls-18" d="M-15.68,287.3a2420.5,2420.5,0,0,1,531.36,0q-7.84,71-15.68,142a2278.78,2278.78,0,0,0-500,0Q-7.85,358.29-15.68,287.3Z" transform="translate(15.68 39.31)"/><path class="cls-19" d="M-15.68,252.63a2421.74,2421.74,0,0,1,531.36,0q-7.84,71-15.68,142a2277.54,2277.54,0,0,0-500,0Q-7.85,323.64-15.68,252.63Z" transform="translate(15.68 39.31)"/><path class="cls-20" d="M-15.68,218a2420.5,2420.5,0,0,1,531.36,0Q507.84,289,500,360A2278.78,2278.78,0,0,0,0,360Q-7.85,289-15.68,218Z" transform="translate(15.68 39.31)"/><path class="cls-21" d="M-15.68,183.3a2421.74,2421.74,0,0,1,531.36,0q-7.84,71-15.68,142a2277.54,2277.54,0,0,0-500,0Q-7.85,254.31-15.68,183.3Z" transform="translate(15.68 39.31)"/><path class="cls-22" d="M-15.68,148.64a2420.5,2420.5,0,0,1,531.36,0q-7.84,71-15.68,142a2278.78,2278.78,0,0,0-500,0Q-7.85,219.64-15.68,148.64Z" transform="translate(15.68 39.31)"/><path class="cls-23" d="M-15.68,114a2421.74,2421.74,0,0,1,531.36,0Q507.84,185,500,256A2277.54,2277.54,0,0,0,0,256Q-7.85,185-15.68,114Z" transform="translate(15.68 39.31)"/><path class="cls-24" d="M-15.68,79.31a2420.5,2420.5,0,0,1,531.36,0q-7.84,71-15.68,142a2278.78,2278.78,0,0,0-500,0Q-7.85,150.31-15.68,79.31Z" transform="translate(15.68 39.31)"/><path class="cls-25" d="M-15.68,44.64a2421.74,2421.74,0,0,1,531.36,0q-7.84,71-15.68,142a2277.54,2277.54,0,0,0-500,0Q-7.85,115.65-15.68,44.64Z" transform="translate(15.68 39.31)"/><path class="cls-26" d="M-15.68,10a2420.5,2420.5,0,0,1,531.36,0Q507.84,81,500,152A2278.78,2278.78,0,0,0,0,152Q-7.85,81-15.68,10Z" transform="translate(15.68 39.31)"/><path class="cls-27" d="M-15.68-24.69a2421.74,2421.74,0,0,1,531.36,0q-7.84,71-15.68,142a2277.54,2277.54,0,0,0-500,0Q-7.85,46.32-15.68-24.69Z" transform="translate(15.68 39.31)"/></svg>