<svg xmlns="http://www.w3.org/2000/svg" viewBox="0 0 1080 1080"><defs><style>.cls-1,.cls-2{fill:#fff;}.cls-1{stroke:#000;}</style></defs><g id="Capa_5" data-name="Capa 5"><polygon class="cls-1" points="206.64 899.49 184.24 912.42 209.22 926.84 197.67 933.51 135.45 897.59 147 890.92 172.16 905.44 194.55 892.51 169.4 877.99 180.94 871.33 243.16 907.25 231.61 913.91 206.64 899.49"/><path class="cls-1" d="M279.48,887.3a43.85,43.85,0,0,1-13.41,5,63.25,63.25,0,0,1-15.45,1.17,67.83,67.83,0,0,1-16-2.59,65.31,65.31,0,0,1-14.85-6.26A41.1,41.1,0,0,1,208.94,876a17.57,17.57,0,0,1-4.44-9.19,13.54,13.54,0,0,1,2-8.92,23.31,23.31,0,0,1,8.53-7.69,44,44,0,0,1,13.37-5,63.62,63.62,0,0,1,15.45-1.12,69.51,69.51,0,0,1,16,2.59,65,65,0,0,1,14.8,6.23,40.91,40.91,0,0,1,10.8,8.55,18,18,0,0,1,4.48,9.21,13.37,13.37,0,0,1-1.94,8.92Q285.4,883.89,279.48,887.3Zm-12.7-7.24a12.47,12.47,0,0,0,4.85-4.49,7.37,7.37,0,0,0,.83-5.2,12.17,12.17,0,0,0-2.9-5.46,25.55,25.55,0,0,0-6.63-5.2,40.12,40.12,0,0,0-9-3.83,44.93,44.93,0,0,0-9.44-1.68,36.25,36.25,0,0,0-9,.49,24.25,24.25,0,0,0-7.78,2.79,12.4,12.4,0,0,0-4.77,4.45,7.85,7.85,0,0,0-.91,5.25,10.88,10.88,0,0,0,2.91,5.45,27.37,27.37,0,0,0,6.7,5.16,42.08,42.08,0,0,0,8.94,3.88,39.9,39.9,0,0,0,9.45,1.67,38.18,38.18,0,0,0,9.09-.52A24.12,24.12,0,0,0,266.78,880.06Z"/><path class="cls-1" d="M313.82,866.45,251.6,830.53l11.55-6.66,50.22,29,24.4-14.09,12,6.93Z"/><path class="cls-1" d="M322.51,789.59l-10.32,6,41.05,48.14,11.47-6.62-8.8-10,20.67-11.93,17.3,5.1,11.86-6.85Zm26.22,29.3-6.41-7.28c-.95-1-1.9-2.08-2.87-3.17s-2-2.18-3.09-3.29l-3.21-3.22,5.56,1.82c2.12.69,4.14,1.33,6.05,1.94s3.51,1.09,4.76,1.46L362.46,811Z"/><path class="cls-1" d="M389.86,796.79q-6-2.77-12.48-5.83t-12.48-6.19c-4-2.08-7.79-4.14-11.29-6.15l-6.75-3.91,11.47-6.62,6.75,3.9q5.43,3.13,10.95,6.72t10.75,7.23q5.25,3.66,9.78,7Zm26.52,11.58a11.63,11.63,0,0,1-6.57,1.53,16.09,16.09,0,0,1-7.22-2.3q-3.29-1.89-3.64-4.1c-.24-1.47.57-2.74,2.41-3.81a11.69,11.69,0,0,1,6.54-1.51,15.78,15.78,0,0,1,7.16,2.22c2.26,1.31,3.5,2.69,3.74,4.16S418.23,807.3,416.38,808.37Z"/><path class="cls-1" d="M322.69,985.51A45.89,45.89,0,0,1,312.14,990a50.11,50.11,0,0,1-11.49,1.81,75.11,75.11,0,0,1-12.4-.54L286,981.56q9.81,1.32,15.72.42a29.1,29.1,0,0,0,10.3-3.44,10.54,10.54,0,0,0,3.47-2.92,3.75,3.75,0,0,0,.79-3A4.17,4.17,0,0,0,314,970.1a11.14,11.14,0,0,0-3.17-1.2,15.57,15.57,0,0,0-3.67-.34,27.05,27.05,0,0,0-4.07.4,41.5,41.5,0,0,0-4.42,1,46.94,46.94,0,0,0-4.62,1.59,78,78,0,0,1-10.35,2.74,42.92,42.92,0,0,1-9.47.75,35.16,35.16,0,0,1-16.81-4.82,16.94,16.94,0,0,1-5.88-5.17,9.1,9.1,0,0,1-1.64-5.88,10.74,10.74,0,0,1,2.49-5.85,21.53,21.53,0,0,1,6.25-5.15,44.5,44.5,0,0,1,9.86-4.26,42,42,0,0,1,10.12-1.58,51.3,51.3,0,0,1,10.49.77l.86,8.94a50.26,50.26,0,0,0-7.68-.38,30.16,30.16,0,0,0-6.61.89,21.1,21.1,0,0,0-5.35,2.11,11.72,11.72,0,0,0-3.63,3,3.29,3.29,0,0,0-.67,3,4.76,4.76,0,0,0,2.39,2.57,10.38,10.38,0,0,0,3.53,1.25,16.49,16.49,0,0,0,4.18.1,33.07,33.07,0,0,0,4.8-.87c1.71-.44,3.48-1,5.33-1.64a75.05,75.05,0,0,1,10.2-2.91,53.4,53.4,0,0,1,9.67-1.13,36.72,36.72,0,0,1,9.07.93,29.57,29.57,0,0,1,8.2,3.22q6.3,3.64,8.13,7.72a8.55,8.55,0,0,1-.43,8.1Q328.85,982,322.69,985.51Z"/><path class="cls-1" d="M369,958.76a37.58,37.58,0,0,1-14.28,4.6,53.09,53.09,0,0,1-16.36-.56A48.39,48.39,0,0,1,323,957.13q-7.11-4.1-9.81-8.91a10.77,10.77,0,0,1-1-9.44q1.74-4.65,8-8.25a37.33,37.33,0,0,1,14.2-4.55,51.9,51.9,0,0,1,16.32.58,48.71,48.71,0,0,1,15.39,5.69q7.13,4.1,9.85,8.88a10.66,10.66,0,0,1,1,9.43Q375.19,955.2,369,958.76Zm-11-6.37a7.08,7.08,0,0,0,3.65-4.11,5.81,5.81,0,0,0-1.06-4.92,15.92,15.92,0,0,0-5.62-4.71,27.65,27.65,0,0,0-8.25-3.3,27.14,27.14,0,0,0-8.53-.61,17.25,17.25,0,0,0-7.12,2.1c-2.05,1.19-3.28,2.58-3.69,4.19a6.17,6.17,0,0,0,1,5,15.33,15.33,0,0,0,5.62,4.75,26.79,26.79,0,0,0,8.2,3.22,28,28,0,0,0,8.57.6A17.28,17.28,0,0,0,358,952.39Z"/><path class="cls-1" d="M431,945.55,419.93,952l-13-16.31L341.7,919.22l12.39-7.16,37,9.92c1.42.35,3,.79,4.7,1.34l1.36.45c-.87-.92-1.81-1.91-2.82-2.94l-19.19-20.94,12.47-7.2,29.93,37Z"/><path class="cls-1" d="M517.34,872.11,506,878.64l-21.33-12.32q-8-4.61-14.05-8.51-2.11-1.37-4.17-2.76l10.7,21.77-5.08,2.94-37.27-6.24q2.06,1,4.08,2.05,6.62,3.42,15.23,8.4l21.33,12.31-11.31,6.53-62.22-35.92,10.55-6.08L459,869l-14-27,10.08-5.82Z"/><path class="cls-1" d="M566.77,843.57l-47-27.15-10.85,6.27,6.17,3.57a40.91,40.91,0,0,0-6.06-.35,32.63,32.63,0,0,0-7.19.92,24.86,24.86,0,0,0-6.53,2.58q-5.31,3.08-6.35,7.26t2,8.78q3.09,4.59,10.19,8.69a54.16,54.16,0,0,0,15,5.91,51.83,51.83,0,0,0,15.18,1.29,28.38,28.38,0,0,0,12.36-3.44,14,14,0,0,0,4.36-3.7,9.27,9.27,0,0,0,1.83-4.23,8.08,8.08,0,0,0-.29-3.59l6.14,3.54Zm-27.29,2.2q-.62,2.31-3.69,4.09a16.74,16.74,0,0,1-7,2.07,27.1,27.1,0,0,1-8.33-.68,30.57,30.57,0,0,1-8.46-3.38,17.28,17.28,0,0,1-5.72-4.81,6,6,0,0,1-1.17-4.81q.54-2.31,3.54-4a16.68,16.68,0,0,1,7.12-2.11,26.5,26.5,0,0,1,8.33.67,30.84,30.84,0,0,1,8.3,3.33,18.54,18.54,0,0,1,5.88,4.86A5.55,5.55,0,0,1,539.48,845.77Z"/><path class="cls-1" d="M586.16,832.37l-11,6.35-47-27.14,10.54-6.09,7.81,4.28a10.6,10.6,0,0,1-.89-2.06,7.74,7.74,0,0,1,.22-5.52,9.5,9.5,0,0,1,4.2-4.37,18.61,18.61,0,0,1,2.81-1.32,23.62,23.62,0,0,1,2.7-.84l10.94,9.7a19.27,19.27,0,0,0-3.13.72,16,16,0,0,0-3.13,1.35,7.38,7.38,0,0,0-2.67,2.41,4.07,4.07,0,0,0-.6,2.81,6,6,0,0,0,1.44,2.92,12.42,12.42,0,0,0,3.43,2.74Z"/><polygon class="cls-1" points="623.35 810.9 612.42 817.21 576.69 796.58 569.07 800.98 557.79 794.46 565.41 790.06 553.5 783.19 564.43 776.88 576.34 783.75 584.73 778.91 596.01 785.42 587.62 790.27 623.35 810.9"/><path class="cls-1" d="M582.54,773.5,573.36,772l.68-14.46,14.17,1.88Zm53.25,30.22-47-27.15,10.93-6.31,47,27.15Z"/><path class="cls-1" d="M634.62,762.26a3.87,3.87,0,0,0-.78,2.66,5.34,5.34,0,0,0,1.07,2.67,8.91,8.91,0,0,0,2.81,2.37L666,786.28l-5.39,3.11-3.16,1.83-2.38,1.37-47-27.14,10.47-6.05,6.36,3.45a9,9,0,0,1-.32-1.34A8.43,8.43,0,0,1,625.6,756a12.37,12.37,0,0,1,4.86-4.66,25,25,0,0,1,9.87-3.23,30.32,30.32,0,0,1,11.14,1,50.78,50.78,0,0,1,12.2,5.22L692.47,771l-10.93,6.31-27.82-16.07a26.19,26.19,0,0,0-6.11-2.63,13.78,13.78,0,0,0-5.45-.44,12,12,0,0,0-4.78,1.73A8.55,8.55,0,0,0,634.62,762.26Z"/><path class="cls-1" d="M689.36,701l-10.31,5.95L720.1,755l11.47-6.62-8.8-10,20.67-11.93,17.3,5.1,11.85-6.85Zm26.23,29.3L709.18,723c-.95-1-1.91-2.08-2.87-3.16s-2-2.19-3.09-3.3L700,713.27l5.57,1.83q3.18,1,6.06,1.94c1.92.6,3.5,1.09,4.76,1.46l12.94,3.82Z"/><path class="cls-1" d="M824.07,711.38a11.78,11.78,0,0,0-3.24-6.8,34.58,34.58,0,0,0-8.76-6.74l-43.46-25.1-10.47,6,5.3,3.24c-1-.08-2-.11-3-.1a45.12,45.12,0,0,0-5.72.43,34.18,34.18,0,0,0-5.66,1.27,24.76,24.76,0,0,0-5,2.19q-5.54,3.21-6.73,7.53t1.77,8.94q3,4.59,10,8.65a50.6,50.6,0,0,0,30.18,6.49,32.64,32.64,0,0,0,13-4,14.09,14.09,0,0,0,5-4.6,8,8,0,0,0,1.32-5.28,5.34,5.34,0,0,0-.21-1l3.3,1.91a17,17,0,0,1,5.8,4.86,4.51,4.51,0,0,1,.38,4.71c-.78,1.54-2.49,3.08-5.16,4.62a29,29,0,0,1-5,2.29,41.11,41.11,0,0,1-5.7,1.55,43.42,43.42,0,0,1-5.77.77l5.06,7.44a51.2,51.2,0,0,0,12-2,48,48,0,0,0,11.19-4.56,24.47,24.47,0,0,0,7.45-6.15A9.73,9.73,0,0,0,824.07,711.38Zm-35.93-9.27q-.74,2.37-4,4.24a17.68,17.68,0,0,1-7.23,2.22,26.29,26.29,0,0,1-8.48-.59,29.76,29.76,0,0,1-8.42-3.3,16.85,16.85,0,0,1-5.63-4.8,5.83,5.83,0,0,1-1.06-4.93q.64-2.38,3.81-4.2a18.08,18.08,0,0,1,7.34-2.29,25.44,25.44,0,0,1,8.49.59,30,30,0,0,1,8.37,3.32,17.76,17.76,0,0,1,5.81,4.86A5.49,5.49,0,0,1,788.14,702.11Z"/><path class="cls-1" d="M851.13,679.39l-6.75-3.6a8.38,8.38,0,0,1,.49,1.67,7.72,7.72,0,0,1-1,5.39,12.94,12.94,0,0,1-4.95,4.61,24.57,24.57,0,0,1-9.93,3.11,34.07,34.07,0,0,1-11.41-.9,45.06,45.06,0,0,1-11.91-4.88l-29-16.73,10.93-6.31,26.93,15.55a25.72,25.72,0,0,0,6.47,2.68,18.51,18.51,0,0,0,6.22.56,12.85,12.85,0,0,0,5.4-1.68,7.72,7.72,0,0,0,2.61-2.27A4,4,0,0,0,836,674a5,5,0,0,0-1.2-2.69,10.47,10.47,0,0,0-3-2.46l-28.17-16.27,10.93-6.31,47,27.15Z"/><path class="cls-1" d="M819.1,632.51a12.94,12.94,0,0,1-6.75,1.79,13.73,13.73,0,0,1-6.88-1.92c-2-1.17-3.06-2.46-3.13-3.9s.93-2.74,3-3.92a13,13,0,0,1,6.75-1.79,13.61,13.61,0,0,1,6.79,1.87c2,1.17,3.07,2.47,3.17,3.92S821.15,631.33,819.1,632.51Zm51.22,35.8-47-27.14,10.93-6.32,47,27.15Z"/><path class="cls-1" d="M901,650.59l-11,6.35L843,629.8l10.54-6.09,7.81,4.28a11,11,0,0,1-.89-2.07,7.72,7.72,0,0,1,.22-5.51,9.5,9.5,0,0,1,4.2-4.37,17.68,17.68,0,0,1,2.81-1.32,22.45,22.45,0,0,1,2.7-.84l10.94,9.7a19,19,0,0,0-3.13.72,15.77,15.77,0,0,0-3.13,1.35,7.22,7.22,0,0,0-2.67,2.41,4.07,4.07,0,0,0-.6,2.81,6,6,0,0,0,1.43,2.92,12.82,12.82,0,0,0,3.44,2.74Z"/><path class="cls-1" d="M932.33,632.51l-11,6.36-47-27.15,10.54-6.09,7.8,4.28a11.5,11.5,0,0,1-.88-2.06,7.74,7.74,0,0,1,.22-5.52,9.5,9.5,0,0,1,4.2-4.37,18.61,18.61,0,0,1,2.81-1.32,23,23,0,0,1,2.7-.84l10.94,9.7a19,19,0,0,0-3.13.72,15.77,15.77,0,0,0-3.13,1.35,7.31,7.31,0,0,0-2.67,2.42,4,4,0,0,0-.6,2.8,6,6,0,0,0,1.43,2.92,12.63,12.63,0,0,0,3.44,2.74Z"/><path class="cls-1" d="M967.56,595.34a9,9,0,0,1-1.39,4.7,11.71,11.71,0,0,1-3.95,3.41,23.66,23.66,0,0,1-8.55,2.93,28.21,28.21,0,0,1-14.5-1.73l29-16.76-3.83-2.31a44.16,44.16,0,0,0-10.52-4.65,50.64,50.64,0,0,0-11.43-2,44.78,44.78,0,0,0-11,.69,30.13,30.13,0,0,0-9.48,3.41,17.83,17.83,0,0,0-6.45,5.83,9.78,9.78,0,0,0-1.43,6.78,14.57,14.57,0,0,0,3.56,7,32.36,32.36,0,0,0,8.5,6.69,48,48,0,0,0,15.18,5.6,50.62,50.62,0,0,0,16.23.49,39.5,39.5,0,0,0,14.69-4.9,21.76,21.76,0,0,0,4.82-3.7,16.6,16.6,0,0,0,3.19-4.56,11.16,11.16,0,0,0,1.06-5.08Zm-38.89-2c.56-1.49,2-2.88,4.22-4.18a14.52,14.52,0,0,1,5.27-1.76,21.57,21.57,0,0,1,6.06,0,17.22,17.22,0,0,1,5.66,1.71l.35.2-18.69,10.8a11.94,11.94,0,0,1-2-2.13A4.79,4.79,0,0,1,928.67,593.37Z"/></g><g id="borde"><path class="cls-2" d="M1071,9V1071H9V9H1071m9-9H0V1080H1080V0Z"/></g></svg>