<svg id="Capa_1" data-name="Capa 1" xmlns="http://www.w3.org/2000/svg" viewBox="0 0 488.23 488.22"><defs><style>.cls-1{fill:#97cfec;}</style></defs><path class="cls-1" d="M250,5.89C115.18,5.89,5.88,115.18,5.88,250a244.12,244.12,0,0,0,488.24,0C494.12,115.18,384.82,5.89,250,5.89ZM387.11,423.46h0c-.44.35-53.79,47.64-137.11,47.64-77.7,0-137.54-48-137.62-48a137.7,137.7,0,0,1,275.25,0C387.45,423.19,387.27,423.32,387.11,423.46ZM177.61,190.58A72.39,72.39,0,1,1,250,263,72.46,72.46,0,0,1,177.61,190.58ZM410.46,402.1c-.51.54-1,1.08-1.56,1.62A160.81,160.81,0,0,0,296.55,273.85a95.39,95.39,0,1,0-93.1,0A160.84,160.84,0,0,0,91.09,403.73c-.53-.53-1-1.07-1.55-1.61a221.13,221.13,0,1,1,320.92,0Z" transform="translate(-5.88 -5.89)"/></svg>